#!OML:ASF I:\golf\golf\golf 2\Subject 1\2002-09-07\Subject1.ASF
:FULLY-SPECIFIED
:DEGREES
268
root 0.677174 9.2701 -4.44504 7.17424 3.29476 -5.37321
lowerback 40.9176 8.24362 5.02342
upperback 18.3664 12.0458 8.17048
thorax 0.217929 5.73142 2.0125
lowerneck -15.9354 -7.27391 -3.75436
upperneck 25.2753 -7.31504 -5.93881
head 10.6935 -4.27535 -2.48306
rclavicle 1.27222e-014 -4.77083e-015
rhumerus 27.8016 -4.63436 -70.256
rradius 32.2152
rwrist 14.4674
rhand -53.03 68.3545
rfingers 7.12502
rthumb -25.4945 40.04
lclavicle 1.27222e-014 -4.77083e-015
lhumerus -39.4427 -34.4006 99.4594
lradius 95.5663
lwrist -13.1605
lhand -49.1458 20.0939
lfingers 7.12502
lthumb -21.769 48.8897
rfemur -111.069 -60.2167 49.9574
rtibia 141.445
rfoot -28.7734 21.7967
rtoes -3.99409
lfemur -99.9188 42.3545 -21.0139
ltibia 139.834
lfoot -32.107 -30.7954
ltoes -17.1038
269
root 0.679545 9.26663 -4.43977 7.08607 3.27145 -5.35439
lowerback 41.0441 8.16009 5.14393
upperback 18.3541 11.9838 8.01628
thorax 0.228478 5.71646 1.81122
lowerneck -15.8337 -7.22015 -3.57554
upperneck 25.1853 -7.31764 -5.87203
head 10.633 -4.25193 -2.47914
rclavicle 8.26944e-014 -6.20208e-014
rhumerus 27.6458 -4.5537 -70.357
rradius 32.4733
rwrist 14.6803
rhand -52.9076 68.067
rfingers 7.12502
rthumb -25.3772 39.7358
lclavicle 8.26944e-014 -6.20208e-014
lhumerus -39.4123 -34.5151 99.2318
lradius 95.5842
lwrist -13.3093
lhand -49.2053 20.5325
lfingers 7.12502
lthumb -21.8261 49.3217
rfemur -110.94 -60.3554 49.8375
rtibia 141.479
rfoot -28.7898 21.7953
rtoes -4.18994
lfemur -99.8153 42.4146 -20.9277
ltibia 139.908
lfoot -32.297 -30.7052
ltoes -17.8841
270
root 0.682449 9.26401 -4.43485 6.9703 3.25524 -5.38593
lowerback 41.1504 8.10761 5.25153
upperback 18.3738 11.9573 7.95838
thorax 0.25473 5.71306 1.70645
lowerneck -15.7498 -7.20864 -3.52448
upperneck 25.141 -7.35397 -5.75263
head 10.6017 -4.24909 -2.444
rclavicle 2.54444e-014 4.13472e-014
rhumerus 27.5205 -4.60068 -70.4715
rradius 32.6934
rwrist 15.1404
rhand -52.8575 67.5039
rfingers 7.12502
rthumb -25.3293 39.1659
lclavicle 2.54444e-014 4.13472e-014
lhumerus -39.357 -34.5957 99.1208
lradius 95.6158
lwrist -13.2968
lhand -49.2984 20.932
lfingers 7.12502
lthumb -21.9155 49.7108
rfemur -110.719 -60.4696 49.7316
rtibia 141.491
rfoot -28.9011 21.6915
rtoes -4.53421
lfemur -99.608 42.3434 -20.6613
ltibia 139.941
lfoot -32.3792 -30.7105
ltoes -18.0653
271
root 0.682458 9.25897 -4.43006 7.0174 3.21259 -5.32385
lowerback 41.1138 8.15963 5.13159
upperback 18.3577 11.9778 7.96612
thorax 0.222191 5.71466 1.76326
lowerneck -15.7051 -7.21563 -3.57531
upperneck 25.2081 -7.3603 -5.70806
head 10.6223 -4.25063 -2.42178
rclavicle -7.95139e-014 4.6118e-014
rhumerus 27.3761 -4.4341 -70.3311
rradius 32.798
rwrist 15.3237
rhand -52.8216 67.4517
rfingers 7.12502
rthumb -25.2949 39.1089
lclavicle -7.95139e-014 4.6118e-014
lhumerus -39.3622 -34.634 99.1481
lradius 95.5942
lwrist -13.3129
lhand -49.4646 21.0349
lfingers 7.12502
lthumb -22.0751 49.7949
rfemur -110.877 -60.4608 49.7705
rtibia 141.562
rfoot -28.9272 21.6681
rtoes -4.75991
lfemur -99.6343 42.1234 -20.5718
ltibia 139.982
lfoot -31.9993 -30.9495
ltoes -17.3162
272
root 0.683039 9.25413 -4.42652 7.11663 3.19441 -5.22151
lowerback 41.0586 8.21717 4.96799
upperback 18.339 11.9907 7.988
thorax 0.180556 5.70927 1.8581
lowerneck -15.8039 -7.21154 -3.61813
upperneck 25.3428 -7.32257 -5.74229
head 10.6929 -4.24205 -2.43244
rclavicle -7.31528e-014 -1.27222e-014
rhumerus 27.2648 -4.15611 -70.0443
rradius 32.9057
rwrist 15.2244
rhand -52.6632 67.7853
rfingers 7.12502
rthumb -25.1431 39.421
lclavicle -7.31528e-014 -1.27222e-014
lhumerus -39.3054 -34.7044 99.1842
lradius 95.5055
lwrist -13.3289
lhand -49.5336 21.0455
lfingers 7.12502
lthumb -22.1414 49.7976
rfemur -111.222 -60.448 49.8311
rtibia 141.667
rfoot -28.7564 21.8114
rtoes -4.57559
lfemur -99.8066 42.0082 -20.7054
ltibia 140.057
lfoot -31.7153 -30.9978
ltoes -16.8661
273
root 0.685794 9.25245 -4.42095 7.1421 3.19666 -5.17068
lowerback 41.0251 8.2226 4.9248
upperback 18.3524 11.9807 7.99875
thorax 0.194584 5.70232 1.89642
lowerneck -15.8853 -7.1948 -3.6115
upperneck 25.3939 -7.28576 -5.77677
head 10.7265 -4.22962 -2.44678
rclavicle -6.36111e-015 -9.85972e-014
rhumerus 27.2141 -4.09584 -69.9736
rradius 32.9638
rwrist 15.3537
rhand -52.4477 68.1177
rfingers 7.12502
rthumb -24.9366 39.7246
lclavicle -6.36111e-015 -9.85972e-014
lhumerus -39.2366 -34.8069 99.1856
lradius 95.4922
lwrist -13.2322
lhand -49.3962 20.946
lfingers 7.12502
lthumb -22.0095 49.7137
rfemur -111.418 -60.5378 49.8681
rtibia 141.735
rfoot -28.7349 21.8702
rtoes -4.69966
lfemur -99.7921 42.0142 -20.7824
ltibia 140.094
lfoot -31.8108 -30.7917
ltoes -17.148
274
root 0.687198 9.25363 -4.41178 7.09788 3.16526 -5.1135
lowerback 41.0353 8.23373 4.8769
upperback 18.377 11.975 7.98644
thorax 0.21325 5.69829 1.91007
lowerneck -15.8699 -7.17114 -3.58254
upperneck 25.376 -7.26544 -5.76667
head 10.7161 -4.21664 -2.44355
rclavicle -9.54166e-015 4.77083e-014
rhumerus 27.1679 -4.17813 -70.0753
rradius 33.0225
rwrist 15.6664
rhand -52.3235 68.3644
rfingers 7.12502
rthumb -24.8176 39.955
lclavicle -9.54166e-015 4.77083e-014
lhumerus -39.2232 -34.8484 99.1413
lradius 95.5868
lwrist -13.2212
lhand -49.1859 20.9184
lfingers 7.12502
lthumb -21.8075 49.7097
rfemur -111.368 -60.7012 49.7969
rtibia 141.743
rfoot -28.9534 21.7732
rtoes -5.34929
lfemur -99.4936 42.0824 -20.7174
ltibia 140.094
lfoot -32.0393 -30.6642
ltoes -17.5548
